<svg width="3778" height="573" viewBox="0 0 3778 573" fill="none" xmlns="http://www.w3.org/2000/svg">
<g clip-path="url(#clip0_906_8155)">
<g clip-path="url(#clip1_906_8155)">
<g clip-path="url(#clip2_906_8155)">
<g clip-path="url(#clip3_906_8155)">
<g clip-path="url(#clip4_906_8155)">
<g clip-path="url(#clip5_906_8155)">
<g clip-path="url(#clip6_906_8155)">
<g clip-path="url(#clip7_906_8155)">
<path d="M599.307 239.167H181.345V334.619H599.307V239.167Z" fill="white"/>
</g>
</g>
</g>
</g>
</g>
<path d="M443.637 224.708V76.6184H11.2913V496.251H443.637V348.161H436.992V489.801H17.9361V83.0679H436.992V224.708H443.637Z" fill="#1EBBD7"/>
</g>
</g>
<path d="M638.062 456V109.32H688.844V456H638.062ZM638.062 456V409.613H867.555V456H638.062ZM638.062 305.609V259.223H823.609V305.609H638.062ZM638.062 155.707V109.32H867.555V155.707H638.062ZM857.848 456L960.875 313.422L1040.46 197.211H1099.06L992.125 344.184L916.441 456H857.848ZM1040.46 456L961.852 344.184L857.848 197.211H916.441L996.031 313.422L1099.06 456H1040.46ZM1105.95 568.305V197.211H1152.83L1157.71 251.898V568.305H1105.95ZM1231.2 460.883C1211.34 460.883 1195.31 456.326 1183.1 447.211C1171.06 438.096 1164.22 425.401 1162.59 409.125H1140.13L1157.71 335.395C1157.71 362.087 1162.92 382.351 1173.34 396.186C1183.92 410.02 1199.38 416.938 1219.72 416.938C1240.56 416.938 1256.34 409.532 1267.09 394.721C1277.83 379.91 1283.2 358.018 1283.2 329.047C1283.2 298.448 1277.83 275.336 1267.09 259.711C1256.34 244.086 1240.56 236.273 1219.72 236.273C1199.38 236.273 1183.92 243.191 1173.34 257.025C1162.92 270.86 1157.71 291.124 1157.71 317.816L1140.13 244.086H1160.15C1162.43 227.81 1169.76 215.115 1182.12 206C1194.66 196.885 1211.01 192.328 1231.2 192.328C1265.21 192.328 1290.93 203.884 1308.35 226.996C1325.76 250.108 1334.47 284.125 1334.47 329.047C1334.47 372.341 1325.76 405.137 1308.35 427.436C1290.93 449.734 1265.21 460.883 1231.2 460.883ZM1444.39 460.883C1408.58 460.883 1380.75 449.164 1360.89 425.727C1341.04 402.289 1331.11 369.249 1331.11 326.605C1331.11 283.799 1341.04 250.759 1360.89 227.484C1380.75 204.047 1408.58 192.328 1444.39 192.328C1480.36 192.328 1508.19 204.047 1527.89 227.484C1547.74 250.759 1557.67 283.799 1557.67 326.605C1557.67 369.249 1547.74 402.289 1527.89 425.727C1508.19 449.164 1480.36 460.883 1444.39 460.883ZM1444.39 414.496C1463.43 414.496 1478.08 406.846 1488.34 391.547C1498.75 376.247 1503.96 354.6 1503.96 326.605C1503.96 298.448 1498.75 276.801 1488.34 261.664C1478.08 246.365 1463.43 238.715 1444.39 238.715C1425.35 238.715 1410.62 246.365 1400.2 261.664C1389.95 276.801 1384.82 298.448 1384.82 326.605C1384.82 354.6 1389.95 376.247 1400.2 391.547C1410.62 406.846 1425.35 414.496 1444.39 414.496ZM1574.82 456L1535.76 109.32H1587.03L1616.32 416.938H1621.21L1653.19 197.211H1702.02L1685.66 245.551H1675.89L1650.26 456H1574.82ZM1704.46 456L1678.82 245.551H1669.06L1653.19 197.211H1702.02L1733.51 416.938H1738.39L1767.69 109.32H1818.96L1779.9 456H1704.46ZM1901.54 456V211.859H1953.3V456H1901.54ZM1802.91 456V410.59H1906.42V456H1802.91ZM1948.41 456V410.59H2032.89V456H1948.41ZM1817.55 242.621V197.211H1953.3V242.621H1817.55ZM1925.71 156.195C1915.78 156.195 1907.24 152.696 1900.07 145.697C1893.08 138.536 1889.58 129.991 1889.58 120.062C1889.58 109.971 1893.08 101.426 1900.07 94.4277C1907.24 87.429 1915.78 83.9297 1925.71 83.9297C1935.8 83.9297 1944.35 87.429 1951.34 94.4277C1958.34 101.426 1961.84 109.971 1961.84 120.062C1961.84 129.991 1958.34 138.536 1951.34 145.697C1944.35 152.696 1935.8 156.195 1925.71 156.195ZM2197.01 456V287.543C2197.01 271.918 2192.94 259.874 2184.8 251.41C2176.66 242.947 2165.27 238.715 2150.62 238.715C2109.93 238.715 2089.59 262.641 2089.59 310.492L2074.45 244.086H2094.47C2095.93 226.671 2102.28 213.731 2113.51 205.268C2124.74 196.641 2141.18 192.328 2162.83 192.328C2190.17 192.328 2211.33 200.629 2226.3 217.23C2241.28 233.832 2248.77 257.27 2248.77 287.543V456H2197.01ZM2037.83 456V197.211H2084.7L2089.59 251.898V456H2037.83ZM2356.49 460.883C2322.64 460.883 2296.92 449.734 2279.34 427.436C2261.93 405.137 2253.22 372.341 2253.22 329.047C2253.22 284.125 2261.93 250.108 2279.34 226.996C2296.92 203.884 2322.64 192.328 2356.49 192.328C2375.86 192.328 2391.57 196.885 2403.61 206C2415.82 215.115 2422.98 227.81 2425.09 244.086H2445.11L2429.98 317.816C2429.98 291.124 2424.69 270.86 2414.11 257.025C2403.69 243.191 2388.31 236.273 2367.96 236.273C2347.13 236.273 2331.34 244.086 2320.6 259.711C2309.86 275.336 2304.49 298.448 2304.49 329.047C2304.49 358.018 2309.86 379.91 2320.6 394.721C2331.34 409.532 2347.13 416.938 2367.96 416.938C2388.31 416.938 2403.69 410.02 2414.11 396.186C2424.69 382.351 2429.98 362.087 2429.98 335.395L2447.55 409.125H2425.09C2423.47 425.401 2416.55 438.096 2404.34 447.211C2392.3 456.326 2376.35 460.883 2356.49 460.883ZM2435.35 458.441L2429.98 407.66V89.7891H2481.73V456L2435.35 458.441ZM2609.23 460.883C2573.43 460.883 2545.6 449.164 2525.74 425.727C2505.88 402.289 2495.95 369.249 2495.95 326.605C2495.95 283.799 2505.88 250.759 2525.74 227.484C2545.6 204.047 2573.43 192.328 2609.23 192.328C2645.2 192.328 2673.04 204.047 2692.73 227.484C2712.59 250.759 2722.52 283.799 2722.52 326.605C2722.52 369.249 2712.59 402.289 2692.73 425.727C2673.04 449.164 2645.2 460.883 2609.23 460.883ZM2609.23 414.496C2628.28 414.496 2642.93 406.846 2653.18 391.547C2663.6 376.247 2668.8 354.6 2668.8 326.605C2668.8 298.448 2663.6 276.801 2653.18 261.664C2642.93 246.365 2628.28 238.715 2609.23 238.715C2590.19 238.715 2575.46 246.365 2565.04 261.664C2554.79 276.801 2549.66 298.448 2549.66 326.605C2549.66 354.6 2554.79 376.247 2565.04 391.547C2575.46 406.846 2590.19 414.496 2609.23 414.496ZM2871.5 456L2841.23 250.434H2837.32L2816.08 197.211H2863.44L2893.96 416.938H2898.36L2920.33 197.211H2971.6L2934.98 456H2871.5ZM2742.11 456L2712.81 197.211H2761.64L2781.17 416.938H2785.56L2816.08 197.211H2863.44L2841.71 250.434H2838.3L2808.02 456H2742.11ZM3299.35 456V211.859H3351.11V456H3299.35ZM3200.72 456V410.59H3304.23V456H3200.72ZM3346.23 456V410.59H3430.7V456H3346.23ZM3215.37 242.621V197.211H3351.11V242.621H3215.37ZM3323.52 156.195C3313.59 156.195 3305.05 152.696 3297.89 145.697C3290.89 138.536 3287.39 129.991 3287.39 120.062C3287.39 109.971 3290.89 101.426 3297.89 94.4277C3305.05 87.429 3313.59 83.9297 3323.52 83.9297C3333.61 83.9297 3342.16 87.429 3349.16 94.4277C3356.15 101.426 3359.65 109.971 3359.65 120.062C3359.65 129.991 3356.15 138.536 3349.16 145.697C3342.16 152.696 3333.61 156.195 3323.52 156.195ZM3541.11 460.883C3505.3 460.883 3477.47 449.164 3457.61 425.727C3437.76 402.289 3427.83 369.249 3427.83 326.605C3427.83 283.799 3437.76 250.759 3457.61 227.484C3477.47 204.047 3505.3 192.328 3541.11 192.328C3577.08 192.328 3604.91 204.047 3624.61 227.484C3644.46 250.759 3654.39 283.799 3654.39 326.605C3654.39 369.249 3644.46 402.289 3624.61 425.727C3604.91 449.164 3577.08 460.883 3541.11 460.883ZM3541.11 414.496C3560.15 414.496 3574.8 406.846 3585.05 391.547C3595.47 376.247 3600.68 354.6 3600.68 326.605C3600.68 298.448 3595.47 276.801 3585.05 261.664C3574.8 246.365 3560.15 238.715 3541.11 238.715C3522.07 238.715 3507.34 246.365 3496.92 261.664C3486.67 276.801 3481.54 298.448 3481.54 326.605C3481.54 354.6 3486.67 376.247 3496.92 391.547C3507.34 406.846 3522.07 414.496 3541.11 414.496Z" fill="#1EBBD7"/>
<path d="M3075.17 460.883C3065.24 460.883 3056.7 457.383 3049.54 450.385C3042.54 443.223 3039.04 434.678 3039.04 424.75C3039.04 414.659 3042.54 406.114 3049.54 399.115C3056.7 392.117 3065.24 388.617 3075.17 388.617C3085.26 388.617 3093.81 392.117 3100.81 399.115C3107.81 406.114 3111.3 414.659 3111.3 424.75C3111.3 434.678 3107.81 443.223 3100.81 450.385C3093.81 457.383 3085.26 460.883 3075.17 460.883Z" fill="white"/>
</g>
<defs>
<clipPath id="clip0_906_8155">
<rect width="3778" height="572.257" fill="white" transform="translate(0 0.305908)"/>
</clipPath>
<clipPath id="clip1_906_8155">
<rect width="3999" height="572.257" fill="white" transform="translate(0 0.305908)"/>
</clipPath>
<clipPath id="clip2_906_8155">
<rect width="3655.83" height="572.257" fill="white" transform="translate(0.918457 0.305908)"/>
</clipPath>
<clipPath id="clip3_906_8155">
<rect width="582.991" height="95.6727" fill="white" transform="translate(181.099 238.598)"/>
</clipPath>
<clipPath id="clip4_906_8155">
<rect width="582.991" height="95.6727" fill="white" transform="translate(181.099 238.598)"/>
</clipPath>
<clipPath id="clip5_906_8155">
<rect width="582.991" height="95.6727" fill="white" transform="translate(181.099 238.598)"/>
</clipPath>
<clipPath id="clip6_906_8155">
<rect width="545.62" height="95.452" fill="white" transform="translate(180.973 238.936)"/>
</clipPath>
<clipPath id="clip7_906_8155">
<rect width="545.62" height="95.452" fill="white" transform="translate(180.973 238.936)"/>
</clipPath>
</defs>
</svg>
