<svg xmlns="http://www.w3.org/2000/svg" version="1.1" xmlns:xlink="http://www.w3.org/1999/xlink" xmlns:svgjs="http://svgjs.dev/svgjs" width="1000" height="623" viewBox="0 0 1000 623"><g transform="matrix(1,0,0,1,-0.6060606060606233,0.2522267206477409)"><svg viewBox="0 0 396 247" data-background-color="#ffffff" preserveAspectRatio="xMidYMid meet" height="623" width="1000" xmlns="http://www.w3.org/2000/svg" xmlns:xlink="http://www.w3.org/1999/xlink"><g id="tight-bounds" transform="matrix(1,0,0,1,0.2400000000000091,-0.09999999999999432)"><svg viewBox="0 0 395.52 247.2" height="247.2" width="395.52"><g><svg></svg></g><g><svg viewBox="0 0 395.52 247.2" height="247.2" width="395.52"><g transform="matrix(1,0,0,1,75.54432,102.9359534373115)"><svg viewBox="0 0 244.43135999999998 41.32809312537699" height="41.32809312537699" width="244.43135999999998"><g><svg viewBox="0 0 244.43135999999998 41.32809312537699" height="41.32809312537699" width="244.43135999999998"><g><svg viewBox="0 0 244.43135999999998 41.32809312537699" height="41.32809312537699" width="244.43135999999998"><g id="textblocktransform"><svg viewBox="0 0 244.43135999999998 41.32809312537699" height="41.32809312537699" width="244.43135999999998" id="textblock"><g><svg viewBox="0 0 244.43135999999998 41.32809312537699" height="41.32809312537699" width="244.43135999999998"><rect width="244.43135999999998" height="41.32809312537699" x="0" y="0" opacity="1" fill="#1ebbd7" data-fill-palette-color="tertiary"></rect><g transform="matrix(1,0,0,1,14.5894968,14.5894968)"><svg width="215.25236639999997" viewBox="2.75 -13.1 232.02 4.449999999999999" height="12.149099525376991" data-palette-color="#ffffff"><path d="M12.05-8.65L2.75-8.65 2.75-13.1 12.05-13.1 12.05-8.65ZM234.77-8.65L225.47-8.65 225.47-13.1 234.77-13.1 234.77-8.65Z" opacity="1" transform="matrix(1,0,0,1,0,0)" fill="#ffffff" class="wordmark-text-0" data-fill-palette-color="quaternary" id="text-0"></path></svg></g></svg></g></svg></g></svg></g></svg></g></svg></g><path d="M185.619 96.936L185.619 32.965 4.349 32.965 4.349 214.235 185.619 214.235 185.619 150.264 182.833 150.264 182.833 211.449 7.135 211.449 7.135 35.751 182.833 35.751 182.833 96.936Z" fill="#1ebbd7" stroke="transparent" data-fill-palette-color="primary"></path></svg></g><defs></defs></svg><rect width="395.52" height="247.2" fill="none" stroke="none" visibility="hidden"></rect></g></svg></g></svg>