<svg width="2000" height="1246" viewBox="0 0 1000 623" fill="none" xmlns="http://www.w3.org/2000/svg">
<g clip-path="url(#clip0_904_8155)">
<g clip-path="url(#clip1_904_8155)">
<g clip-path="url(#clip2_904_8155)">
<g clip-path="url(#clip3_904_8155)">
<g clip-path="url(#clip4_904_8155)">
<g clip-path="url(#clip5_904_8155)">
<g clip-path="url(#clip6_904_8155)">
<g clip-path="url(#clip7_904_8155)">
<path d="M807.655 259.632H191.134V363.872H807.655V259.632Z" fill="white"/>
<g clip-path="url(#clip8_904_8155)">
<path d="M249.694 316.959H227.932V306.546H249.694V316.959ZM770.856 316.959H749.094V306.546H770.856V316.959Z" fill="white"/>
</g>
</g>
</g>
</g>
</g>
</g>
<path d="M468.771 244.498V83.1465H11.5598V540.358H468.771V379.006H461.744V533.331H18.5869V90.1735H461.744V244.498H468.771Z" fill="white"/>
</g>
</g>
</g>
<defs>
<clipPath id="clip0_904_8155">
<rect width="1000" height="623" fill="white"/>
</clipPath>
<clipPath id="clip1_904_8155">
<rect width="1000" height="623" fill="white" transform="translate(-0.605957 0.252197)"/>
</clipPath>
<clipPath id="clip2_904_8155">
<rect width="997.607" height="623.504" fill="white" transform="translate(0.590576)"/>
</clipPath>
<clipPath id="clip3_904_8155">
<rect width="616.521" height="104.24" fill="white" transform="translate(191.134 259.632)"/>
</clipPath>
<clipPath id="clip4_904_8155">
<rect width="616.521" height="104.24" fill="white" transform="translate(191.134 259.632)"/>
</clipPath>
<clipPath id="clip5_904_8155">
<rect width="616.521" height="104.24" fill="white" transform="translate(191.134 259.632)"/>
</clipPath>
<clipPath id="clip6_904_8155">
<rect width="616.521" height="104.24" fill="white" transform="translate(191.134 259.632)"/>
</clipPath>
<clipPath id="clip7_904_8155">
<rect width="616.521" height="104.24" fill="white" transform="translate(191.134 259.632)"/>
</clipPath>
<clipPath id="clip8_904_8155">
<rect width="542.924" height="30.6433" fill="white" transform="translate(227.932 296.43)"/>
</clipPath>
</defs>
</svg>
